<svg xmlns="http://www.w3.org/2000/svg" viewBox="0 0 24 24" class="fill-current w-5 h-5"><path d="M20.8 15.6c.4-.5.6-1.1.6-1.7 0-.6-.3-1.1-.5-1.4.3-.7.4-1.7-.5-2.6-.7-.6-1.8-.9-3.4-.8-1.1.1-2 .3-2.1.3-.2 0-.4.1-.7.1 0-.3 0-.9.5-2.4.6-1.8.6-3.1-.1-4.1-.7-1-1.8-1-2.1-1-.3 0-.6.1-.8.4-.5.5-.4 1.5-.4 2-.4 1.5-2 5.1-3.3 6.1l-.1.1c-.4.4-.6.8-.8 1.2-.2-.1-.5-.2-.8-.2H3.7c-1 0-1.7.8-1.7 1.7v6.8c0 1 .8 1.7 1.7 1.7h2.5c.4 0 .7-.1 1-.3l1 .1c.2 0 2.8.4 5.6.3.5 0 1 .1 1.4.1.7 0 1.4-.1 1.9-.2 1.3-.3 2.2-.8 2.6-1.6.3-.6.3-1.2.3-1.6.8-.8 1-1.6.9-2.2.1-.3 0-.6-.1-.8zM3.7 20.7c-.3 0-.6-.3-.6-.6v-6.8c0-.3.3-.6.6-.6h2.5c.3 0 .6.3.6.6v6.8c0 .3-.3.6-.6.6H3.7zm16.1-5.6c-.2.2-.2.5-.1.7 0 0 .2.3.2.7 0 .5-.2 1-.8 1.4-.2.2-.3.4-.2.6 0 0 .2.6-.1 1.1-.3.5-.9.9-1.8 1.1-.8.2-1.8.2-3 .1h-.1c-2.7.1-5.4-.3-5.4-.3H8v-7.2c0-.2 0-.4-.1-.5.1-.3.3-.9.8-1.4 1.9-1.5 3.7-6.5 3.8-6.7v-.3c-.1-.5 0-1 .1-1.2.2 0 .8.1 1.2.6.4.6.4 1.6-.1 3-.7 2.1-.7 3.2-.2 3.7.3.2.6.3.9.2.3-.1.5-.1.7-.1h.1c1.3-.3 3.6-.5 4.4.3.7.6.2 1.4.1 1.5-.2.2-.1.5.1.7 0 0 .4.4.5 1 0 .3-.2.6-.5 1z"/></svg>