<svg xmlns="http://www.w3.org/2000/svg" viewBox="0 0 24 24" class="fill-current w-5 h-5"><path d="M22.9 10.1c-.1-.1-.2-.2-.3-.2L20 9.5c-.1-.5-.3-.9-.6-1.4.2-.2.4-.6.8-1 .3-.4.6-.8.7-1 .1 0 .1-.2.1-.3 0-.1 0-.2-.1-.3-.3-.5-1.1-1.3-2.4-2.4-.1-.1-.2-.1-.4-.1-.1 0-.3 0-.3.1l-2 1.5c-.4-.2-.8-.4-1.3-.5l-.4-2.6c0-.1-.1-.2-.2-.3-.1-.2-.2-.2-.3-.2h-3.2c-.3 0-.4.1-.5.4-.1.5-.3 1.4-.4 2.7-.5.1-.9.3-1.3.5l-2-1.5c-.1-.1-.3-.2-.4-.2-.2 0-.7.3-1.4 1-.6.7-1.1 1.3-1.4 1.6-.1.1-.1.2-.1.3 0 .1 0 .2.1.3.6.8 1.2 1.4 1.5 2-.2.5-.3.9-.5 1.4l-2.6.4c-.1 0-.2.1-.3.2-.1.1-.1.2-.1.3v3.2c0 .1 0 .2.1.3.1.1.2.2.3.2l2.6.4c.1.5.3.9.6 1.4-.2.2-.4.6-.8 1-.3.4-.6.8-.7 1-.1.1-.1.2-.1.3 0 .1 0 .2.1.3.4.5 1.2 1.3 2.4 2.4.1.1.2.2.4.2.1 0 .3 0 .4-.1l2-1.5c.3.1.7.3 1.2.5l.4 2.6c0 .1.1.2.2.3.1.1.2.1.4.1h3.2c.3 0 .4-.1.5-.4.1-.5.3-1.4.4-2.7.4-.1.9-.3 1.3-.5l2 1.5c.1.1.3.1.4.1.2 0 .7-.3 1.3-1 .7-.7 1.2-1.2 1.4-1.5.1-.1.1-.2.1-.3 0-.1 0-.2-.1-.4-.7-.8-1.2-1.5-1.5-2 .2-.4.4-.8.6-1.3l2.7-.4c.1 0 .2-.1.3-.2.1-.1.1-.2.1-.3v-3.2c-.2-.1-.2-.2-.3-.3zm-8.3 4.5c-.7.7-1.6 1.1-2.6 1.1s-1.9-.4-2.6-1.1c-.7-.7-1.1-1.6-1.1-2.6s.4-1.9 1.1-2.6c.7-.7 1.6-1.1 2.6-1.1s1.9.4 2.6 1.1c.7.7 1.1 1.6 1.1 2.6s-.4 1.9-1.1 2.6z"/></svg>